<svg version="1.1" id="logo" xmlns="http://www.w3.org/2000/svg" x="0" y="0" viewBox="0 0 247.3 50.8" xml:space="preserve"><path fill="#fff" d="M0 31.6 11 .8h6.6l11.1 30.8H21L19.8 28h-11l-1.2 3.6H0zm10.5-9.3H18L14.3 9.6l-3.8 12.7zM30.6 21.4h7.1c0 1.7.5 2.9 1.4 3.9.9.9 2.1 1.4 3.5 1.4 1.2 0 2.2-.3 2.9-1 .8-.7 1.1-1.5 1.1-2.6 0-.6-.1-1.1-.4-1.6-.2-.4-.6-.8-1-1.1-.4-.3-.9-.6-1.5-.9-.6-.2-1.2-.5-1.9-.8-1.4-.5-2.7-1-3.9-1.5-1.3-.5-2.4-1.2-3.3-1.9-1-.7-1.7-1.6-2.3-2.6-.6-1-.9-2.3-.9-3.8s.3-2.8.9-4c.6-1.1 1.4-2.1 2.4-2.8S36.9.8 38.2.5s2.7-.5 4.1-.5c1.8 0 3.4.3 4.7.8 1.4.5 2.5 1.2 3.4 2.1.9.9 1.6 2 2.1 3.1.5 1.2.7 2.4.7 3.7H46c0-1.4-.3-2.4-1-3.2-.7-.8-1.6-1.2-2.9-1.2-1 0-1.9.3-2.6.8s-1.1 1.3-1.1 2.3c0 1 .4 1.8 1.1 2.4.8.6 1.8 1.2 3.2 1.7 1.3.5 2.7 1 4 1.5 1.3.5 2.5 1.2 3.5 1.9s1.8 1.6 2.4 2.7c.6 1.1.9 2.4.9 4 0 1.5-.3 2.9-.9 4.1s-1.4 2.2-2.4 3.1c-1 .8-2.2 1.5-3.6 1.9-1.4.4-2.9.7-4.6.7-1.7 0-3.3-.2-4.8-.7s-2.7-1.2-3.7-2.1c-1-.9-1.9-2.1-2.4-3.4-.2-1.5-.5-3.1-.5-4.8zM58.5 31.6V.8h12.9c1.7 0 3.2.3 4.6.9 1.4.6 2.6 1.4 3.5 2.4 1 1 1.7 2.2 2.3 3.5.5 1.3.8 2.8.8 4.3 0 2.2-.5 4.2-1.6 5.9-1.1 1.8-2.6 3.1-4.5 4l6.2 9.7h-8.3L68.9 23h-3.4v8.5h-7zm7.1-14.4h4.9c.7 0 1.4-.1 2-.4.6-.3 1.1-.7 1.6-1.2.4-.5.8-1 1-1.7s.4-1.3.4-2-.1-1.4-.4-2c-.2-.7-.6-1.2-1-1.7s-.9-.9-1.6-1.2c-.6-.3-1.3-.4-2-.4h-4.9v10.6zM85.7 16.2c0-2.1.4-4.1 1.1-6.1s1.8-3.7 3.2-5.2c1.4-1.5 3.1-2.7 5.1-3.6C97.1.4 99.4 0 102 0c2.5 0 4.8.4 6.8 1.3s3.7 2.1 5.1 3.6c1.4 1.5 2.5 3.2 3.2 5.2.7 2 1.1 4 1.1 6.1s-.4 4.1-1.1 6.1c-.7 2-1.8 3.7-3.2 5.2-1.4 1.5-3.1 2.7-5.1 3.6-2 .9-4.3 1.3-6.8 1.3s-4.8-.4-6.9-1.3-3.7-2.1-5.1-3.6c-1.4-1.5-2.5-3.2-3.2-5.2-.7-2-1.1-4-1.1-6.1zm7.3 0c0 1.3.2 2.5.6 3.7.4 1.2 1 2.2 1.8 3.1.8.9 1.7 1.6 2.8 2.2 1.1.5 2.4.8 3.8.8s2.7-.3 3.8-.8c1.1-.5 2.1-1.3 2.8-2.2.8-.9 1.4-2 1.8-3.1.4-1.2.6-2.4.6-3.7 0-1.3-.2-2.5-.6-3.7-.4-1.2-1-2.2-1.8-3.1-.8-.9-1.7-1.6-2.8-2.2-1.1-.5-2.4-.8-3.8-.8s-2.7.3-3.8.8-2.1 1.3-2.8 2.2c-.8.9-1.4 2-1.8 3.1-.4 1.2-.6 2.4-.6 3.7zM122.6 31.6V.8h8.2l8.2 21.4L147.1.8h8.1v30.8h-7V12.5l-6.6 19.1h-5.3l-6.9-19.1v19.1h-6.8zM158.4 31.6l11-30.8h6.6l11.1 30.8h-7.7l-1.2-3.6h-11l-1.2 3.6h-7.6zm10.6-9.3h7.5l-3.7-12.7-3.8 12.7zM189.5 27.6c0-.6.1-1.2.3-1.7.2-.5.5-1 .9-1.4.4-.4.8-.7 1.4-.9s1.1-.4 1.7-.4 1.2.1 1.7.4c.5.2 1 .6 1.4.9.4.4.7.9.9 1.4.2.5.3 1.1.3 1.7 0 .6-.1 1.2-.3 1.7-.2.5-.5 1-.9 1.4-.4.4-.8.7-1.4.9-.5.2-1.1.3-1.7.3s-1.2-.1-1.7-.3-1-.5-1.4-.9c-.4-.4-.7-.9-.9-1.4-.2-.5-.3-1.1-.3-1.7zM203.5 31.6V.8h12.9c1.7 0 3.2.3 4.6.9s2.6 1.4 3.5 2.4c1 1 1.7 2.2 2.3 3.5.5 1.3.8 2.8.8 4.3s-.3 2.9-.8 4.3c-.5 1.3-1.3 2.5-2.3 3.5-1 1-2.2 1.8-3.5 2.4s-2.9.9-4.6.9h-5.7v8.5h-7.2zm7.2-14.4h4.9c.7 0 1.4-.1 2-.4.6-.3 1.1-.7 1.6-1.2.4-.5.8-1 1-1.7s.4-1.3.4-2-.1-1.4-.4-2c-.2-.7-.6-1.2-1-1.7s-.9-.9-1.6-1.2c-.6-.3-1.3-.4-2-.4h-4.9v10.6zM231.5 31.6V.8h7.1v24.6h8.8v6.2h-15.9z"/><path fill="#fbba00" d="M5 50.6V38.9h4.4c.9 0 1.6.2 2.3.5.6.3 1.1.8 1.4 1.4.3.6.5 1.2.5 2 0 .7-.2 1.4-.5 2-.3.6-.8 1-1.4 1.4-.6.3-1.4.5-2.3.5H7.1v3.9H5zm2.1-5.7H9c.8 0 1.4-.2 1.7-.6.4-.4.5-.9.5-1.5s-.2-1.1-.5-1.5c-.4-.4-.9-.6-1.7-.6H7.1v4.2zM25.7 44.8c0 1.3-.2 2.3-.7 3.2-.5.9-1.1 1.6-1.9 2-.8.5-1.7.7-2.7.7s-1.9-.2-2.7-.7c-.8-.5-1.4-1.2-1.9-2.1-.5-.9-.7-2-.7-3.2 0-1.3.2-2.3.7-3.2.5-.9 1.1-1.6 1.9-2 .8-.5 1.7-.7 2.7-.7s1.9.2 2.7.7c.8.5 1.4 1.2 1.9 2 .4.9.7 2 .7 3.3zm-2.2 0c0-1.3-.3-2.3-.9-3-.6-.7-1.4-1-2.3-1-.9 0-1.7.3-2.3 1-.6.7-.9 1.7-.9 3s.3 2.3.9 3c.6.7 1.4 1.1 2.3 1.1 1 0 1.7-.3 2.3-1.1.6-.7.9-1.7.9-3zM27.7 50.6V38.9h2.1v9.9h5.1v1.8h-7.2zM43 42.1c-.1-.5-.3-.9-.7-1.2s-.9-.4-1.5-.4c-.7 0-1.2.1-1.5.4s-.6.6-.6 1.1c0 .3.1.6.3.8.2.2.4.4.8.5l.9.3 1.1.3c.6.1 1.1.3 1.7.6.5.3.9.6 1.3 1.1.3.4.5 1 .5 1.7 0 1-.4 1.9-1.2 2.5-.8.6-1.9 1-3.2 1-1.4 0-2.4-.3-3.2-.9-.8-.6-1.2-1.5-1.3-2.7h2.1c0 .6.3 1.1.8 1.4.5.3 1 .4 1.7.4s1.2-.2 1.7-.5c.4-.3.6-.7.6-1.2s-.2-.8-.6-1c-.4-.2-.9-.4-1.5-.6l-1.3-.3c-1-.2-1.7-.6-2.3-1.1-.6-.5-.8-1.2-.8-2 0-.7.2-1.3.6-1.8.4-.5.9-.9 1.5-1.2.6-.3 1.4-.4 2.2-.4.8 0 1.6.1 2.2.4s1.1.7 1.5 1.2.5 1.1.5 1.7H43zM47.1 50.6V38.9h2.1v5.3h.1l4.5-5.3h2.6L52 44.2l4.5 6.4H54l-3.5-5-1.3 1.5v3.5h-2.1zM60 38.9v11.6h-2.1V38.9H60zM72.6 42.1c-.1-.5-.3-.9-.7-1.2s-.9-.4-1.5-.4c-.7 0-1.2.1-1.5.4s-.6.6-.6 1.1c0 .3.1.6.3.8.2.2.4.4.8.5l.9.3 1.1.3c.6.1 1.1.3 1.7.6.5.3.9.6 1.3 1.1.3.4.5 1 .5 1.7 0 1-.4 1.9-1.2 2.5-.8.6-1.9 1-3.2 1-1.4 0-2.4-.3-3.2-.9-.8-.6-1.2-1.5-1.3-2.7h2c0 .6.3 1.1.8 1.4.5.3 1 .4 1.7.4s1.2-.2 1.7-.5c.4-.3.6-.7.6-1.2s-.2-.8-.6-1c-.4-.2-.9-.4-1.5-.6l-1.3-.3c-1-.2-1.7-.6-2.3-1.1-.6-.5-.8-1.2-.8-2 0-.7.2-1.3.6-1.8.4-.5.9-.9 1.5-1.2.6-.3 1.4-.4 2.2-.4.8 0 1.6.1 2.2.4s1.1.7 1.5 1.2.5 1.1.5 1.7h-2.2zM76.7 50.6V38.9h7.6v1.8h-5.5v3.2h5.1v1.8h-5.1v3.2h5.5v1.8h-7.6zM86.4 50.6V38.9h4.4c1.3 0 2.4.3 3.1 1 .7.7 1 1.6 1 2.7 0 .8-.2 1.5-.5 2s-.9 1-1.6 1.3l2.5 4.6H93l-2.3-4.3h-2.1v4.3h-2.2zm2.1-6h1.9c.8 0 1.4-.2 1.7-.5.4-.3.5-.8.5-1.4 0-.6-.2-1.1-.5-1.4-.4-.3-.9-.5-1.7-.5h-1.9v3.8zM99.3 50.6 96 38.9h2.3l2.1 8.6h.1l2.2-8.6h2.1l2.2 8.6h.1l2.1-8.6h2.3l-3.3 11.6h-2.1l-2.3-8.2h-.1l-2.3 8.2h-2.1zM115 38.9v11.6h-2.1V38.9h2.1zM123.7 42.1c-.1-.5-.3-.9-.7-1.2s-.9-.4-1.5-.4c-.7 0-1.2.1-1.5.4s-.6.6-.6 1.1c0 .3.1.6.3.8.2.2.4.4.8.5l.9.3 1.1.3c.6.1 1.1.3 1.7.6.5.3.9.6 1.3 1.1.3.4.5 1 .5 1.7 0 1-.4 1.9-1.2 2.5s-1.9 1-3.2 1c-1.4 0-2.4-.3-3.2-.9-.8-.6-1.2-1.5-1.3-2.7h2.1c0 .6.3 1.1.8 1.4.5.3 1 .4 1.7.4s1.2-.2 1.7-.5c.4-.3.6-.7.6-1.2s-.2-.8-.6-1c-.4-.2-.9-.4-1.5-.6l-1.3-.3c-1-.2-1.7-.6-2.3-1.1-.6-.5-.8-1.2-.8-2 0-.7.2-1.3.6-1.8.4-.5.9-.9 1.5-1.2.6-.3 1.4-.4 2.2-.4.8 0 1.6.1 2.2.4s1.1.7 1.5 1.2c.4.5.5 1.1.5 1.7h-2.3zM131.7 50.6V38.9h4.4c1.3 0 2.4.3 3.1 1 .7.7 1 1.6 1 2.7 0 .8-.2 1.5-.5 2s-.9 1-1.6 1.3l2.5 4.6h-2.4l-2.3-4.3h-2.1v4.3h-2.1zm2.1-6h1.9c.8 0 1.4-.2 1.7-.5.4-.3.5-.8.5-1.4 0-.6-.2-1.1-.5-1.4-.4-.3-.9-.5-1.7-.5h-1.9v3.8zM152.5 44.8c0 1.3-.2 2.3-.7 3.2-.5.9-1.1 1.6-1.9 2-.8.5-1.7.7-2.7.7-1 0-1.9-.2-2.7-.7-.8-.5-1.4-1.2-1.9-2.1-.5-.9-.7-2-.7-3.2 0-1.3.2-2.3.7-3.2.5-.9 1.1-1.6 1.9-2 .8-.5 1.7-.7 2.7-.7 1 0 1.9.2 2.7.7.8.5 1.4 1.2 1.9 2 .5.9.7 2 .7 3.3zm-2.1 0c0-1.3-.3-2.3-.9-3-.6-.7-1.4-1-2.3-1-.9 0-1.7.3-2.3 1-.6.7-.9 1.7-.9 3s.3 2.3.9 3c.6.7 1.4 1.1 2.3 1.1 1 0 1.7-.3 2.3-1.1.6-.7.9-1.7.9-3zM154.5 38.9h2.6l3.5 8.4h.1l3.5-8.4h2.6v11.6h-2v-8h-.1l-3.2 8H160l-3.2-8h-.1v8h-2V38.9zM170.5 50.6h-2.2l4.1-11.6h2.6l4.1 11.6h-2.2l-1-2.9h-4.4l-1 2.9zM172 46h3.2l-1.6-4.7h-.1L172 46zM190.1 38.9v11.6h-1.9l-5.5-7.9h-.1v7.9h-2.1V38.9h1.9l5.5 7.9h.1v-7.9h2.1zM194.5 38.9v11.6h-2.1V38.9h2.1zM203.2 42.1c-.1-.5-.3-.9-.7-1.2-.4-.3-.9-.4-1.5-.4-.7 0-1.2.1-1.5.4s-.6.6-.6 1.1c0 .3.1.6.3.8.2.2.4.4.8.5l.9.3 1.1.3c.6.1 1.1.3 1.7.6.5.3.9.6 1.3 1.1.3.4.5 1 .5 1.7 0 1-.4 1.9-1.2 2.5-.8.6-1.9 1-3.2 1-1.4 0-2.4-.3-3.2-.9-.8-.6-1.2-1.5-1.3-2.7h2.1c0 .6.3 1.1.8 1.4.5.3 1 .4 1.7.4s1.2-.2 1.7-.5c.4-.3.6-.7.6-1.2s-.2-.8-.6-1c-.4-.2-.9-.4-1.5-.6l-1.3-.3c-1-.2-1.7-.6-2.3-1.1s-.8-1.2-.8-2c0-.7.2-1.3.6-1.8.4-.5.9-.9 1.5-1.2.6-.3 1.4-.4 2.2-.4.8 0 1.6.1 2.2.4s1.1.7 1.5 1.2.5 1.1.5 1.7h-2.3zM206.7 40.7v-1.8h9.3v1.8h-3.6v9.9h-2.1v-9.9h-3.6zM227.7 44.8c0 1.3-.2 2.3-.7 3.2-.5.9-1.1 1.6-1.9 2-.8.5-1.7.7-2.7.7-1 0-1.9-.2-2.7-.7-.8-.5-1.4-1.2-1.9-2.1-.5-.9-.7-2-.7-3.2 0-1.3.2-2.3.7-3.2.5-.9 1.1-1.6 1.9-2 .8-.5 1.7-.7 2.7-.7 1 0 1.9.2 2.7.7.8.5 1.4 1.2 1.9 2 .4.9.7 2 .7 3.3zm-2.2 0c0-1.3-.3-2.3-.9-3-.6-.7-1.4-1-2.3-1-.9 0-1.7.3-2.3 1-.6.7-.9 1.7-.9 3s.3 2.3.9 3c.6.7 1.4 1.1 2.3 1.1 1 0 1.7-.3 2.3-1.1.6-.7.9-1.7.9-3zm-4-7 1.3-2.6h2l-1.7 2.6h-1.6zM231.8 50.6 228.5 39h2.3l2.1 8.6h.1l2.2-8.6h2.1l2.2 8.6h.1l2.1-8.6h2.3l-3.3 11.6h-2.1l-2.3-8.2h-.1l-2.3 8.2h-2.1z"/></svg>