<?xml version="1.0" encoding="utf-8"?>
<!-- Generator: Adobe Illustrator 25.2.3, SVG Export Plug-In . SVG Version: 6.00 Build 0)  -->
<svg version="1.1" id="Layer_1" xmlns="http://www.w3.org/2000/svg" xmlns:xlink="http://www.w3.org/1999/xlink" x="0px" y="0px"
	 viewBox="0 0 66.6 64" style="enable-background:new 0 0 66.6 64;" xml:space="preserve">
<style type="text/css">
	.st0{fill:#C0C0C0;}
</style>
<g>
	<path class="st0" d="M58.3,5h-8.6V3.2c0-1.8-1.4-3.2-3.2-3.2s-3.2,1.4-3.2,3.2V5H23V3.2C23,1.4,21.6,0,19.9,0
		c-1.8,0-3.2,1.4-3.2,3.2V5H8.2C3.7,5,0,8.6,0,13.2v42.6C0,60.3,3.6,64,8.2,64h50.2c4.5,0,8.2-3.6,8.2-8.2V13.2
		C66.5,8.6,62.9,5,58.3,5L58.3,5z M8.2,11.3h8.6v1.8c0,1.8,1.4,3.2,3.2,3.2c1.8,0,3.2-1.4,3.2-3.2v-1.8h20.4l0,1.8
		c0,1.8,1.4,3.2,3.2,3.2c1.8,0,3.2-1.4,3.2-3.2v-1.8h8.6c1.1,0,1.9,0.8,1.9,1.9v8.3h-54v-8.3C6.3,12.1,7.1,11.3,8.2,11.3L8.2,11.3z
		 M58.3,57.7H8.2c-1.1,0-1.9-0.8-1.9-1.9V27.7h54v28.1C60.2,56.9,59.4,57.7,58.3,57.7L58.3,57.7z"/>
</g>
</svg>
