<?xml version="1.0" encoding="utf-8"?>
<!-- Generator: Adobe Illustrator 25.2.3, SVG Export Plug-In . SVG Version: 6.00 Build 0)  -->
<svg version="1.1" id="Layer_1" xmlns="http://www.w3.org/2000/svg" xmlns:xlink="http://www.w3.org/1999/xlink" x="0px" y="0px"
	 viewBox="0 0 79.8 64" style="enable-background:new 0 0 79.8 64;" xml:space="preserve">
<style type="text/css">
	.st0{fill:#C0C0C0;}
</style>
<g>
	<path class="st0" d="M74.3,0H31.5c-3,0-5.5,2.4-5.5,5.5v12.2H5.5c-3,0-5.5,2.4-5.5,5.5V48c0,3,2.4,5.5,5.5,5.5h2.7v5.4
		c0,2.1,1.3,3.9,3.2,4.7c0.7,0.3,1.3,0.4,1.9,0.4c1.3,0,2.6-0.5,3.6-1.5l9-9h22.4c3,0,5.5-2.4,5.5-5.5V35.9H54l9,9
		c1,1,2.3,1.5,3.6,1.5c0.7,0,1.3-0.2,1.9-0.4c1.9-0.8,3.2-2.7,3.2-4.7v-5.4h2.6c3,0,5.5-2.4,5.5-5.5V5.5C79.8,2.4,77.4,0,74.3,0
		L74.3,0z M48.8,48c0,0.3-0.3,0.5-0.5,0.5H24.8c-0.7,0-1.3,0.3-1.8,0.8L13.4,59c0,0-0.1,0.1-0.2,0C13,59,13,58.9,13,58.9v-7.8
		c0-1.3-1.1-2.5-2.5-2.5h-5C5.2,48.5,5,48.3,5,48V23.1c0-0.3,0.3-0.5,0.5-0.5h42.8c0.3,0,0.5,0.3,0.5,0.5L48.8,48z M74.8,30.4
		c0,0.3-0.2,0.5-0.5,0.5h-5.1c-1.3,0-2.5,1.1-2.5,2.5v7.8c0,0.1,0,0.1-0.1,0.2h-0.2l-9.7-9.8c-0.5-0.5-1.1-0.8-1.8-0.8h-1.3V23
		c0-3-2.4-5.5-5.5-5.5l-17.3,0V5.5C31,5.2,31.2,5,31.5,5h42.8c0.3,0,0.5,0.3,0.5,0.5L74.8,30.4z"/>
</g>
</svg>
