<?xml version="1.0" encoding="utf-8"?>
<!-- Generator: Adobe Illustrator 25.2.3, SVG Export Plug-In . SVG Version: 6.00 Build 0)  -->
<svg version="1.1" id="Layer_1" xmlns="http://www.w3.org/2000/svg" xmlns:xlink="http://www.w3.org/1999/xlink" x="0px" y="0px"
	 viewBox="0 0 64 64" style="enable-background:new 0 0 64 64;" xml:space="preserve">
<style type="text/css">
	.st0{fill:#C0C0C0;}
</style>
<g>
	<path class="st0" d="M46.7,0c-0.1,0-0.2,0-0.4,0H2.5C1.8,0,1.2,0.3,0.7,0.8C0.3,1.2,0,1.9,0,2.5v51.7C0,59.6,4.4,64,9.8,64h44.3
		c0.3,0,0.6,0,0.9-0.1c5-0.5,9-4.6,9-9.7V34.5c0-0.7-0.3-1.3-0.7-1.7c-0.5-0.5-1.1-0.7-1.7-0.7H49.2V2.5c0-0.7-0.2-1.3-0.7-1.8
		C48,0.2,47.4,0,46.7,0L46.7,0z M4.9,5h39.4V34c0,0.3,0,0.6,0,0.9v19.3c0,1.8,0.5,3.5,1.4,4.9H9.8c-2.8,0-4.9-2.2-4.9-4.9L4.9,5z
		 M12.1,14.8c-0.9,0.1-1.6,0.6-2,1.4c-0.4,0.8-0.3,1.7,0.1,2.4s1.3,1.2,2.2,1.1h24.6h0c0.7,0,1.3-0.2,1.8-0.7
		c0.5-0.5,0.7-1.1,0.7-1.8c0-0.7-0.3-1.3-0.7-1.8c-0.5-0.5-1.1-0.7-1.8-0.7H12.3C12.2,14.8,12.1,14.8,12.1,14.8L12.1,14.8z
		 M12.1,24.6c-0.9,0-1.7,0.6-2.1,1.3c-0.4,0.8-0.4,1.7,0.1,2.5c0.5,0.7,1.3,1.2,2.2,1.1h24.6h0c0.7,0,1.3-0.3,1.7-0.7
		c0.5-0.5,0.7-1.1,0.7-1.7c0-0.7-0.3-1.3-0.7-1.7c-0.5-0.5-1.1-0.7-1.7-0.7H12.3C12.2,24.6,12.1,24.6,12.1,24.6L12.1,24.6z
		 M12.3,34.5c-0.7,0-1.3,0.2-1.8,0.7c-0.5,0.5-0.7,1.1-0.7,1.8c0,0.7,0.3,1.3,0.7,1.8s1.1,0.7,1.8,0.7h24.6h0c0.7,0,1.3-0.2,1.8-0.7
		c0.5-0.5,0.7-1.1,0.7-1.8c0-0.7-0.3-1.3-0.7-1.8c-0.5-0.5-1.1-0.7-1.8-0.7H12.3z M49.2,36.9h9.8v17.2c0,2.8-2.1,4.9-4.9,4.9h0h0
		c-2.8,0-4.9-2.2-4.9-4.9L49.2,36.9z M12.1,44.3L12.1,44.3C12.1,44.3,12.1,44.3,12.1,44.3c-0.9,0.1-1.6,0.6-2,1.4
		c-0.4,0.8-0.3,1.7,0.1,2.4c0.5,0.7,1.3,1.2,2.2,1.1h24.6c0.7,0,1.3-0.2,1.8-0.7c0.5-0.5,0.7-1.1,0.7-1.8c0-0.7-0.3-1.3-0.7-1.8
		c-0.5-0.5-1.1-0.7-1.8-0.7H12.3C12.2,44.3,12.2,44.3,12.1,44.3L12.1,44.3z"/>
</g>
</svg>
