<?xml version="1.0" encoding="utf-8"?>
<!-- Generator: Adobe Illustrator 25.2.3, SVG Export Plug-In . SVG Version: 6.00 Build 0)  -->
<svg version="1.1" id="Layer_1" xmlns="http://www.w3.org/2000/svg" xmlns:xlink="http://www.w3.org/1999/xlink" x="0px" y="0px"
	 viewBox="0 0 64 64" style="enable-background:new 0 0 64 64;" xml:space="preserve">
<style type="text/css">
	.st0{fill:#FFFFFF;}
</style>
<g>
	<path class="st0" d="M27.4,54.8c5.9,0,11.3-1.8,15.8-5.1L57.5,64l6.5-6.5L49.6,43.2c3.2-4.5,5.1-9.9,5.1-15.8
		C54.7,12.3,42.4,0,27.4,0C12.3,0,0,12.3,0,27.4C0,42.6,12.2,54.8,27.4,54.8L27.4,54.8z M27.4,9.3c10,0,18.1,8.1,18.1,18.1
		c0,10-8.1,18.1-18.1,18.1c-10,0-18.1-8.1-18.1-18.1C9.2,17.4,17.4,9.3,27.4,9.3z"/>
</g>
</svg>
